<?xml version="1.0" encoding="UTF-8"?>
<svg width="74px" height="56px" viewBox="0 0 74 56" version="1.1" xmlns="http://www.w3.org/2000/svg" xmlns:xlink="http://www.w3.org/1999/xlink">
    <!-- Generator: Sketch 50 (54983) - http://www.bohemiancoding.com/sketch -->
    <title>ID Card Outline - FontAwesome</title>
    <desc>Created with Sketch.</desc>
    <defs></defs>
    <g id="Landing" stroke="none" stroke-width="1" fill="none" fill-rule="evenodd">
        <g id="0.0-Landing---Desktop" transform="translate(-475.000000, -932.000000)" fill="#0479BD">
            <g id="Group-3" transform="translate(368.000000, 888.000000)">
                <path d="M139.186185,83.4285576 C139.186185,86.0357036 137.471898,88.142849 135.364752,88.142849 L120.150448,88.142849 C118.043303,88.142849 116.329015,86.0357036 116.329015,83.4285576 C116.329015,78.7142663 117.471874,73.2856884 122.186165,73.2856884 C123.614738,74.7142615 125.579026,75.5714054 127.7576,75.5714054 C129.936174,75.5714054 131.900462,74.7142615 133.329035,73.2856884 C138.043327,73.2856884 139.186185,78.7142663 139.186185,83.4285576 Z M134.614751,67.5713959 C134.614751,71.3571147 131.543319,74.4285469 127.7576,74.4285469 C123.971881,74.4285469 120.900449,71.3571147 120.900449,67.5713959 C120.900449,63.7856771 123.971881,60.7142448 127.7576,60.7142448 C131.543319,60.7142448 134.614751,63.7856771 134.614751,67.5713959 Z M171.186223,82.4285564 L171.186223,84.7142735 C171.186223,85.3571314 170.686223,85.857132 170.043365,85.857132 L144.900478,85.857132 C144.25762,85.857132 143.757619,85.3571314 143.757619,84.7142735 L143.757619,82.4285564 C143.757619,81.7856985 144.25762,81.2856979 144.900478,81.2856979 L170.043365,81.2856979 C170.686223,81.2856979 171.186223,81.7856985 171.186223,82.4285564 Z M157.471921,73.2856884 L157.471921,75.5714054 C157.471921,76.2142633 156.971921,76.7142639 156.329063,76.7142639 L144.900478,76.7142639 C144.25762,76.7142639 143.757619,76.2142633 143.757619,75.5714054 L143.757619,73.2856884 C143.757619,72.6428305 144.25762,72.1428299 144.900478,72.1428299 L156.329063,72.1428299 C156.971921,72.1428299 157.471921,72.6428305 157.471921,73.2856884 Z M171.186223,73.2856884 L171.186223,75.5714054 C171.186223,76.2142633 170.686223,76.7142639 170.043365,76.7142639 L163.186214,76.7142639 C162.543356,76.7142639 162.043355,76.2142633 162.043355,75.5714054 L162.043355,73.2856884 C162.043355,72.6428305 162.543356,72.1428299 163.186214,72.1428299 L170.043365,72.1428299 C170.686223,72.1428299 171.186223,72.6428305 171.186223,73.2856884 Z M171.186223,64.1428204 L171.186223,66.4285374 C171.186223,67.0713953 170.686223,67.5713959 170.043365,67.5713959 L144.900478,67.5713959 C144.25762,67.5713959 143.757619,67.0713953 143.757619,66.4285374 L143.757619,64.1428204 C143.757619,63.4999624 144.25762,62.9999619 144.900478,62.9999619 L170.043365,62.9999619 C170.686223,62.9999619 171.186223,63.4999624 171.186223,64.1428204 Z M175.757657,93.8571415 L175.757657,53.8570938 L111.757581,53.8570938 L111.757581,93.8571415 C111.757581,94.4642851 112.293296,95 112.90044,95 L174.614799,95 C175.221943,95 175.757657,94.4642851 175.757657,93.8571415 Z M180.329092,50.4285183 L180.329092,93.8571415 C180.329092,97.0000024 177.75766,99.571434 174.614799,99.571434 L112.90044,99.571434 C109.757579,99.571434 107.186147,97.0000024 107.186147,93.8571415 L107.186147,50.4285183 C107.186147,47.2856574 109.757579,44.7142258 112.90044,44.7142258 L174.614799,44.7142258 C177.75766,44.7142258 180.329092,47.2856574 180.329092,50.4285183 Z" id="ID-Card-Outline---FontAwesome"></path>
            </g>
        </g>
    </g>
</svg>