<?xml version="1.0" encoding="UTF-8"?>
<svg width="59px" height="65px" viewBox="0 0 59 65" version="1.1" xmlns="http://www.w3.org/2000/svg" xmlns:xlink="http://www.w3.org/1999/xlink">
    <!-- Generator: Sketch 50 (54983) - http://www.bohemiancoding.com/sketch -->
    <title>Paper (Hand) - FontAwesome</title>
    <desc>Created with Sketch.</desc>
    <defs></defs>
    <g id="Landing" stroke="none" stroke-width="1" fill="none" fill-rule="evenodd">
        <g id="0.0-Landing---Desktop" transform="translate(-796.000000, -928.000000)" fill="#0479BD">
            <g id="Group-2" transform="translate(688.000000, 888.000000)">
                <path d="M139.686185,44.7142258 C137.471896,44.7142258 135.68618,46.4999422 135.68618,48.7142305 L135.68618,72.1428299 L134.543321,72.1428299 L134.543321,53.2856646 C134.543321,51.0713762 132.757605,49.2856598 130.543317,49.2856598 C128.329028,49.2856598 126.543312,51.0713762 126.543312,53.2856646 L126.543312,81.2856979 L121.043305,73.9642606 C120.186161,72.8214021 118.829017,72.1428299 117.400444,72.1428299 C114.864726,72.1428299 112.82901,74.2142609 112.82901,76.7142639 C112.82901,77.7142651 113.150439,78.678552 113.757582,79.4642672 L127.471884,97.7500033 C128.329028,98.8928618 129.686173,99.571434 131.114746,99.571434 L155.686204,99.571434 C157.329063,99.571434 158.757636,98.3928612 159.079065,96.7857164 L161.793354,82.3214135 C161.900497,81.6428412 161.971925,80.9285547 161.971925,80.2142681 L161.971925,62.4285326 C161.971925,60.2142442 160.186209,58.4285278 157.971921,58.4285278 C155.757632,58.4285278 153.971916,60.2142442 153.971916,62.4285326 L153.971916,72.1428299 L152.829057,72.1428299 L152.829057,53.2856646 C152.829057,51.0713762 151.043341,49.2856598 148.829053,49.2856598 C146.614764,49.2856598 144.829048,51.0713762 144.829048,53.2856646 L144.829048,72.1428299 L143.686189,72.1428299 L143.686189,48.7142305 C143.686189,46.4999422 141.900473,44.7142258 139.686185,44.7142258 Z M139.686185,40.1427917 C142.900474,40.1427917 145.864763,41.9642225 147.329051,44.8570831 C147.829051,44.7499401 148.329052,44.7142258 148.829053,44.7142258 C153.543344,44.7142258 157.400491,48.5713732 157.400491,53.2856646 L157.400491,53.8928081 C162.364783,53.6070935 166.54336,57.4285266 166.54336,62.4285326 L166.54336,80.2142681 C166.54336,81.2142693 166.436217,82.2142705 166.257645,83.1785573 L163.543356,97.607146 C162.864784,101.392865 159.543351,104.142868 155.686204,104.142868 L131.114746,104.142868 C128.2576,104.142868 125.507596,102.750009 123.793309,100.500007 L110.079006,82.2142705 C108.900434,80.64284 108.257576,78.678552 108.257576,76.7142639 C108.257576,71.6785436 112.329009,67.5713959 117.400444,67.5713959 C118.900446,67.5713959 120.721876,67.9285392 121.971878,68.785683 L121.971878,53.2856646 C121.971878,48.5713732 125.829025,44.7142258 130.543317,44.7142258 C131.043317,44.7142258 131.543318,44.7499401 132.043318,44.8570831 C133.507606,41.9642225 136.471895,40.1427917 139.686185,40.1427917 Z" id="Paper-(Hand)---FontAwesome"></path>
            </g>
        </g>
    </g>
</svg>