<?xml version="1.0" encoding="UTF-8"?>
<svg width="269px" height="96px" viewBox="0 0 269 96" version="1.1" xmlns="http://www.w3.org/2000/svg" xmlns:xlink="http://www.w3.org/1999/xlink">
    <!-- Generator: Sketch 50 (54983) - http://www.bohemiancoding.com/sketch -->
    <title>Page 1</title>
    <desc>Created with Sketch.</desc>
    <defs>
        <polygon id="path-1" points="0.347161636 0.529038462 21.498918 0.529038462 21.498918 10.7398846 0.347161636 10.7398846"></polygon>
        <polygon id="path-3" points="0 96 269.25 96 269.25 0 0 0"></polygon>
    </defs>
    <g id="Landing" stroke="none" stroke-width="1" fill="none" fill-rule="evenodd">
        <g id="0.0-Landing---Desktop" transform="translate(-40.000000, -218.000000)">
            <g id="Group-5" transform="translate(40.000000, 218.000000)">
                <g id="Page-1">
                    <path d="M101.929412,42.0098043 C100.976471,41.0197852 100.5,39.562659 100.5,37.6508267 L100.5,14.25 L108.772549,14.25 L108.772549,35.3752296 C108.772549,36.7124788 109.384314,37.3780031 110.609804,37.3780031 L112.5,37.3780031 L112.5,43.5 L106.219608,43.5 C104.311765,43.5 102.882353,42.9998233 101.929412,42.0098043" id="Fill-1" fill="#FFFFFF"></path>
                    <path d="M119.055842,41.2778535 C117.185985,39.7957411 116.25,37.465247 116.25,34.2863714 C116.25,31.3221465 117.257821,29.0448041 119.275576,27.4543441 C121.293332,25.8659284 124.173123,25.0686542 127.914949,25.0686542 L135.835959,25.0686542 L135.835959,24.0015332 C135.835959,22.5725724 135.333105,21.5463373 134.325284,20.9207836 C133.31535,20.2931857 131.63776,19.9804089 129.28829,19.9804089 C125.914097,19.9804089 122.577934,20.4812606 119.275576,21.4809199 L119.275576,15.2662692 C120.85175,14.7327087 122.696253,14.3034072 124.80486,13.9824532 C126.915579,13.6594549 128.958689,13.5 130.940526,13.5 C140.14825,13.5 144.75,17.3575809 144.75,25.0686542 L144.75,42.9643952 L135.835959,42.9643952 L135.835959,31.179046 L129.28829,31.179046 C127.821985,31.179046 126.721199,31.4100511 125.988046,31.8720613 C125.254893,32.3402044 124.88726,33.1620102 124.88726,34.339523 C124.88726,35.4843271 125.208411,36.2672913 125.850712,36.6965928 C126.493013,37.1258944 127.583234,37.3385009 129.12349,37.3385009 C130.517959,37.3385009 131.618745,37.213799 132.425847,36.9643952 L132.425847,42.7517888 C130.959541,43.2505963 128.977704,43.5 126.484561,43.5 C123.401939,43.5 120.925699,42.7620102 119.055842,41.2778535" id="Fill-3" fill="#FFFFFF"></path>
                    <polygon id="Fill-5" fill="#FFFFFF" points="120.432605 4.06913265 129.748172 4.06913265 129.748172 0 135.812962 0 135.812962 4.06913265 138.68521 4.06913265 138.68521 0 144.75 0 144.75 9.75 120 9.75"></polygon>
                    <path d="M155.036802,42.8580482 C152.780788,42.4287175 150.849757,41.8787652 149.25,41.1979692 L149.25,25.8749489 L162.354171,25.8749489 L162.735765,31.8222025 L157.821176,31.8222025 L157.821176,36.4855527 C158.949183,36.8412839 160.332984,37.0211939 161.970481,37.0211939 C164.593412,37.0211939 166.421706,36.3935532 167.459556,35.1444051 C168.49531,33.8911681 169.015284,31.7342919 169.015284,28.6615102 C169.015284,26.4105902 168.713363,24.6626005 168.113717,23.4114079 C167.51407,22.1622598 166.547506,21.2770206 165.220316,20.7577348 C163.891028,20.2404934 162.079508,19.9808505 159.78785,19.9808505 C158.150353,19.9808505 156.431086,20.1096497 154.627952,20.357026 C152.824818,20.6064468 151.141194,20.9846668 149.57708,21.4814638 L149.57708,15.2663895 C151.323604,14.7307483 153.307051,14.3014175 155.527422,13.982486 C157.747793,13.6594657 159.878007,13.5 161.915968,13.5 C167.340046,13.5 171.334198,14.7695925 173.902615,17.3046886 C176.468936,19.8397847 177.75,23.6260733 177.75,28.6615102 C177.75,33.5885921 176.48571,37.2951479 173.957129,39.7770887 C171.424354,42.261074 167.449073,43.5 162.024994,43.5 C159.62431,43.5 157.292816,43.287379 155.036802,42.8580482" id="Fill-7" fill="#FFFFFF"></path>
                    <path d="M182.633608,34.1730035 C182.633608,30.536703 183.980675,28.2637549 186.681026,27.3562409 L181.5,25.8825713 L181.5,18.4663498 C183.261549,17.0447166 185.410638,15.864532 187.947269,14.9216332 C190.485971,13.9724901 193.246422,13.5 196.232765,13.5 C201.088423,13.5 204.723431,14.5032609 207.133644,16.501457 C209.543857,18.5017345 210.75,21.5926941 210.75,25.7722542 L210.75,43.5 L202.062456,43.5 L202.062456,25.826372 C202.062456,23.7553251 201.575439,22.2816554 200.603479,21.4095261 C199.633591,20.5353153 198.012966,20.0982099 195.747821,20.0982099 C194.38003,20.0982099 193.093064,20.300111 191.886921,20.7018317 C190.680778,21.1014709 189.7026,21.6114272 188.94617,22.2275376 L188.94617,22.8269965 L194.775861,24.5171373 L194.775861,29.1546174 C193.480604,29.5188719 192.579106,30.082946 192.077583,30.8447582 C191.571914,31.6086519 191.321153,32.7534517 191.321153,34.2833206 L191.321153,43.5 L182.633608,43.5 L182.633608,34.1730035 Z" id="Fill-9" fill="#FFFFFF"></path>
                    <path d="M221.030883,41.2668252 C220.001527,40.2787156 219.487905,38.8662644 219.487905,37.0314923 L219.487905,19.1343817 C219.487905,17.5461319 219.762682,16.1336807 220.314349,14.8970281 C220.866017,13.6644169 221.616369,12.708638 222.571747,12.0377742 L215.25,12.0377742 L215.25,6 L233.25,6 L233.25,11.5063369 C231.523133,12.0377742 230.278182,12.957181 229.506693,14.2625364 C228.735204,15.5678919 228.350517,17.3339611 228.350517,19.5587233 L228.350517,34.8087508 C228.350517,36.1141062 229.009981,36.7647633 230.333138,36.7647633 L232.425669,36.7647633 L232.425669,42.75 L225.59852,42.75 C223.579967,42.75 222.058126,42.2569555 221.030883,41.2668252" id="Fill-11" fill="#FFFFFF"></path>
                    <path d="M237.415179,40.0449094 C235.137688,37.7408341 234,34.1610331 234,29.3034619 C234,24.1964699 235.357613,20.2834265 238.074953,17.5704648 C240.792293,14.8575031 244.812265,13.5 250.136983,13.5 C253.621945,13.5 256.514803,14.043819 258.809211,15.131457 C261.101504,16.2231839 262.791118,17.670642 263.87594,19.4717868 C264.958647,21.2770206 265.5,23.2682977 265.5,25.4456181 L265.5,42.9664032 L256.578242,42.9664032 L256.578242,26.1407251 C256.578242,24.1433147 256.09187,22.6161238 255.121241,21.5632411 C254.146382,20.5103585 252.429276,19.9808505 249.969925,19.9808505 C247.548637,19.9808505 245.746945,20.7434237 244.573308,22.2583481 C243.397556,23.7794058 242.811795,26.1264141 242.811795,29.3034619 C242.811795,32.0900232 243.279135,34.0710781 244.21593,35.2486711 C245.152726,36.4262641 246.59281,37.0211939 248.538299,37.0211939 C250.079887,37.0211939 251.274671,36.8760393 252.118421,36.5918632 L252.118421,42.6433829 C250.648731,43.2158239 248.832237,43.5 246.666823,43.5 C242.773731,43.5 239.690555,42.3489846 237.415179,40.0449094" id="Fill-13" fill="#FFFFFF"></path>
                    <g id="Group-17" transform="translate(247.500000, 0.000000)">
                        <mask id="mask-2" fill="white">
                            <use xlink:href="#path-1"></use>
                        </mask>
                        <g id="Clip-16"></g>
                        <polygon id="Fill-15" fill="#FFFFFF" mask="url(#mask-2)" points="4.52363618 6.13805769 0.347161636 6.13805769 0.347161636 0.528634615 10.1457344 0.528634615 10.1457344 5.07998077 21.498918 5.07998077 21.1781253 10.7398846 4.52363618 10.7398846"></polygon>
                    </g>
                    <path d="M101.929412,94.509699 C100.976471,93.5196099 100.5,92.0623808 100.5,90.1504134 L100.5,66.75 L108.772549,66.75 L108.772549,87.8746555 C108.772549,89.2119992 109.384314,89.8775705 110.609804,89.8775705 L112.5,89.8775705 L112.5,96 L106.219608,96 C104.311765,96 102.882353,95.499788 101.929412,94.509699" id="Fill-18" fill="#FFFFFF"></path>
                    <path d="M119.055842,93.7778535 C117.185985,92.2957411 116.25,89.965247 116.25,86.7863714 C116.25,83.8221465 117.257821,81.5448041 119.275576,79.9543441 C121.293332,78.3659284 124.173123,77.5706985 127.914949,77.5706985 L135.835959,77.5706985 L135.835959,76.5015332 C135.835959,75.0746167 135.333105,74.0463373 134.325284,73.4207836 C133.31535,72.7931857 131.63776,72.4804089 129.28829,72.4804089 C125.914097,72.4804089 122.577934,72.9812606 119.275576,73.9809199 L119.275576,67.7662692 C120.85175,67.2327087 122.696253,66.8034072 124.80486,66.4824532 C126.915579,66.1594549 128.958689,66 130.940526,66 C140.146138,66 144.75,69.8575809 144.75,77.5706985 L144.75,95.4643952 L135.835959,95.4643952 L135.835959,83.679046 L129.28829,83.679046 C127.821985,83.679046 126.721199,83.9100511 125.988046,84.3741056 C125.25278,84.8402044 124.88726,85.6620102 124.88726,86.839523 C124.88726,87.9843271 125.208411,88.7672913 125.850712,89.1965928 C126.493013,89.6258944 127.583234,89.8385009 129.12349,89.8385009 C130.517959,89.8385009 131.618745,89.713799 132.425847,89.4643952 L132.425847,95.2517888 C130.959541,95.7505963 128.977704,96 126.484561,96 C123.401939,96 120.925699,95.2620102 119.055842,93.7778535" id="Fill-20" fill="#FFFFFF"></path>
                    <polygon id="Fill-22" fill="#FFFFFF" points="119.682605 56.5683024 128.998172 56.5683024 128.998172 52.5 135.062962 52.5 135.062962 56.5683024 137.93313 56.5683024 137.93313 52.5 144 52.5 144 62.25 119.25 62.25"></polygon>
                    <path d="M155.036802,95.3580482 C152.780788,94.9287175 150.849757,94.3787652 149.25,93.6979692 L149.25,78.3749489 L162.354171,78.3749489 L162.735765,84.3222025 L157.823273,84.3222025 L157.823273,88.9855527 C158.95128,89.3433283 160.332984,89.5211939 161.972578,89.5211939 C164.593412,89.5211939 166.421706,88.8935532 167.459556,87.6444051 C168.49531,86.3911681 169.015284,84.2342919 169.015284,81.1635546 C169.015284,78.9105902 168.71546,77.164645 168.113717,75.9114079 C167.51407,74.6622598 166.549603,73.7770206 165.220316,73.2577348 C163.893125,72.7404934 162.081605,72.4808505 159.78785,72.4808505 C158.150353,72.4808505 156.431086,72.6096497 154.630049,72.857026 C152.826915,73.1064468 151.141194,73.4846668 149.57708,73.9814638 L149.57708,67.7663895 C151.323604,67.2307483 153.307051,66.8014175 155.529519,66.482486 C157.747793,66.1594657 159.878007,66 161.918064,66 C167.340046,66 171.336294,67.2695925 173.902615,69.8046886 C176.468936,72.3397847 177.75,76.1260733 177.75,81.1635546 C177.75,86.0885921 176.48571,89.7951479 173.957129,92.2770887 C171.426451,94.761074 167.449073,96 162.024994,96 C159.62431,96 157.292816,95.7894235 155.036802,95.3580482" id="Fill-24" fill="#FFFFFF"></path>
                    <path d="M181.883608,86.6730035 C181.883608,83.036703 183.232748,80.7637549 185.931026,79.8562409 L180.75,78.3825713 L180.75,70.9663498 C182.513621,69.5447166 184.660638,68.364532 187.197269,67.4216332 C189.735971,66.4724901 192.496422,66 195.482765,66 C200.340495,66 203.973431,67.0032609 206.383644,69.001457 C208.79593,71.0017345 210,74.0926941 210,78.2722542 L210,96 L201.312456,96 L201.312456,78.326372 C201.312456,76.2553251 200.825439,74.7816554 199.853479,73.9095261 C198.883591,73.0353153 197.265038,72.5982099 194.997821,72.5982099 C193.63003,72.5982099 192.343064,72.800111 191.136921,73.2018317 C189.93285,73.6014709 188.9526,74.1114272 188.198243,74.7275376 L188.198243,75.3269965 L194.025861,77.0171373 L194.025861,81.6546174 C192.730604,82.0188719 191.831178,82.582946 191.327583,83.3447582 C190.823987,84.1086519 190.573225,85.2534517 190.573225,86.7833206 L190.573225,96 L181.883608,96 L181.883608,86.6730035 Z" id="Fill-26" fill="#FFFFFF"></path>
                    <mask id="mask-4" fill="white">
                        <use xlink:href="#path-3"></use>
                    </mask>
                    <g id="Clip-29"></g>
                    <polygon id="Fill-28" fill="#FFFFFF" mask="url(#mask-4)" points="214.5 96 222 96 222 89.25 214.5 89.25"></polygon>
                    <polygon id="Fill-30" fill="#FFFFFF" mask="url(#mask-4)" points="224.25 96 231 96 231 89.25 224.25 89.25"></polygon>
                    <path d="M237.415179,92.5449094 C235.137688,90.2408341 234,86.6610331 234,81.8034619 C234,76.6964699 235.357613,72.7854709 238.074953,70.0704648 C240.790179,67.3575031 244.81015,66 250.134868,66 C253.621945,66 256.512688,66.543819 258.809211,67.631457 C261.101504,68.7231839 262.791118,70.170642 263.87594,71.9717868 C264.956532,73.7770206 265.5,75.7682977 265.5,77.9456181 L265.5,95.4664032 L256.578242,95.4664032 L256.578242,78.6407251 C256.578242,76.6433147 256.09187,75.1161238 255.119126,74.0632411 C254.146382,73.0103585 252.429276,72.4808505 249.969925,72.4808505 C247.546523,72.4808505 245.746945,73.2434237 244.573308,74.7603925 C243.397556,76.2794058 242.80968,78.6264141 242.80968,81.8034619 C242.80968,84.5900232 243.279135,86.5710781 244.21593,87.7486711 C245.150611,88.9262641 246.590695,89.5211939 248.538299,89.5211939 C250.079887,89.5211939 251.272556,89.3760393 252.118421,89.0918632 L252.118421,95.1433829 C250.648731,95.7158239 248.832237,96 246.664709,96 C242.773731,96 239.690555,94.8489846 237.415179,92.5449094" id="Fill-31" fill="#FFFFFF" mask="url(#mask-4)"></path>
                    <polygon id="Fill-32" fill="#FFFFFF" mask="url(#mask-4)" points="241.182605 56.5683024 258.405693 56.5683024 258.405693 52.5 265.5 52.5 265.5 62.25 240.75 62.25"></polygon>
                    <path d="M0,96 L82.5,96 L82.5,14.25 L0,14.25 L0,96 Z M10.6214307,85.4751277 L71.8806357,85.4751277 L71.8806357,24.7728246 L10.6214307,24.7728246 L10.6214307,85.4751277 Z" id="Fill-33" fill="#FFFFFF" mask="url(#mask-4)"></path>
                    <path d="M40.875,46.8910303 L53.2659661,34.5 L60.7497941,41.9838668 L48.358828,54.374897 L60.75,66.7661332 L53.266172,74.25 L40.875,61.8587638 L28.483828,74.25 L21,66.7661332 L33.391172,54.374897 L21.0002059,41.9838668 L28.4840339,34.5 L40.875,46.8910303 Z" id="Combined-Shape" fill="#FFFFFF" fill-rule="nonzero" mask="url(#mask-4)"></path>
                </g>
            </g>
        </g>
    </g>
</svg>